<svg width="51" height="50" viewBox="0 0 51 50" fill="none" xmlns="http://www.w3.org/2000/svg">
<g id="Twiter">
<rect id="Rectangle 292" x="0.5" width="50" height="50" rx="25" fill="#40DDB6"/>
<path id="Vector" d="M38.267 17.2069C37.3092 17.6231 36.2958 17.8972 35.2589 18.0208C36.3487 17.3826 37.1682 16.3688 37.5638 15.1695C36.5335 15.772 35.4081 16.1947 34.2359 16.4196C33.7423 15.9023 33.1487 15.4908 32.4911 15.21C31.8335 14.9293 31.1257 14.7852 30.4107 14.7865C27.5158 14.7865 25.1731 17.0952 25.1731 19.9411C25.171 20.337 25.2164 20.7317 25.3082 21.1167C23.2323 21.0194 21.1997 20.4899 19.3402 19.562C17.4808 18.6341 15.8355 17.3283 14.5096 15.7281C14.0444 16.5122 13.7984 17.4069 13.7973 18.3187C13.7973 20.106 14.7298 21.6859 16.1379 22.6115C15.3036 22.5917 14.4865 22.3709 13.7558 21.9678V22.0317C13.7558 24.5318 15.5644 26.6118 17.9582 27.0852C17.5081 27.2052 17.0442 27.266 16.5783 27.2661C16.2478 27.2667 15.918 27.2346 15.5937 27.1703C16.2592 29.2183 18.196 30.7078 20.4903 30.7504C18.626 32.1871 16.3372 32.9637 13.9835 32.958C13.5657 32.9573 13.1483 32.9325 12.7334 32.8835C15.1278 34.4124 17.9111 35.2212 20.752 35.2134C30.3995 35.2134 35.6701 27.3565 35.6701 20.5422C35.6701 20.3188 35.6642 20.0954 35.6536 19.8773C36.6766 19.1496 37.5616 18.2453 38.267 17.2069Z" fill="white"/>
</g>
</svg>
