<svg width="123" height="123" viewBox="0 0 123 123" fill="none" xmlns="http://www.w3.org/2000/svg">
<g filter="url(#filter0_d_1_3205)">
<circle cx="61.6729" cy="61.5" r="36" fill="white"/>
</g>
<path d="M76.4541 52.0938H46.8916C46.1495 52.0938 45.5479 52.6954 45.5479 53.4375V74.9375C45.5479 75.6796 46.1495 76.2812 46.8916 76.2812H76.4541C77.1962 76.2812 77.7979 75.6796 77.7979 74.9375V53.4375C77.7979 52.6954 77.1962 52.0938 76.4541 52.0938Z" stroke="#6B77E5" stroke-width="2" stroke-linecap="round" stroke-linejoin="round"/>
<path d="M68.3916 76.2812V49.4062C68.3916 48.6935 68.1085 48.0099 67.6045 47.5059C67.1004 47.0019 66.4169 46.7188 65.7041 46.7188H57.6416C56.9288 46.7188 56.2453 47.0019 55.7413 47.5059C55.2372 48.0099 54.9541 48.6935 54.9541 49.4062V76.2812" stroke="#6B77E5" stroke-width="2" stroke-linecap="round" stroke-linejoin="round"/>
<defs>
<filter id="filter0_d_1_3205" x="0.672852" y="0.5" width="122" height="122" filterUnits="userSpaceOnUse" color-interpolation-filters="sRGB">
<feFlood flood-opacity="0" result="BackgroundImageFix"/>
<feColorMatrix in="SourceAlpha" type="matrix" values="0 0 0 0 0 0 0 0 0 0 0 0 0 0 0 0 0 0 127 0" result="hardAlpha"/>
<feMorphology radius="11" operator="dilate" in="SourceAlpha" result="effect1_dropShadow_1_3205"/>
<feOffset/>
<feGaussianBlur stdDeviation="7"/>
<feComposite in2="hardAlpha" operator="out"/>
<feColorMatrix type="matrix" values="0 0 0 0 0.945833 0 0 0 0 0.945833 0 0 0 0 0.945833 0 0 0 0.44 0"/>
<feBlend mode="multiply" in2="BackgroundImageFix" result="effect1_dropShadow_1_3205"/>
<feBlend mode="normal" in="SourceGraphic" in2="effect1_dropShadow_1_3205" result="shape"/>
</filter>
</defs>
</svg>
